<?xml version="1.0" encoding="UTF-8"?>
<svg width="12px" height="21px" viewBox="0 0 12 21" version="1.1" xmlns="http://www.w3.org/2000/svg" xmlns:xlink="http://www.w3.org/1999/xlink">
    <!-- Generator: Sketch 48.2 (47327) - http://www.bohemiancoding.com/sketch -->
    <title>arrow-right</title>
    <desc>Created with Sketch.</desc>
    <defs></defs>
    <g id="desktop_home_1920p" stroke="none" stroke-width="1" fill="none" fill-rule="evenodd" transform="translate(-614.000000, -1955.000000)">
        <g id="Property-previews" transform="translate(375.000000, 1772.000000)" fill="#FFFFFF">
            <g id="bg-копия">
                <g id="property_preview_270px" transform="translate(0.000000, 102.000000)">
                    <path d="M243.676822,86.7258453 L235.076896,94.9547669 C234.529923,95.4778613 234.529923,96.327786 235.076896,96.8501157 C235.623673,97.3731938 236.510768,97.3731938 237.057517,96.8501157 L244.66667,89.5688521 L252.275824,96.8501157 C252.822797,97.3731938 253.709667,97.3731938 254.256416,96.8501157 C254.803417,96.327786 254.803417,95.4778613 254.256416,94.9540023 L245.656742,86.7250806 C245.383256,86.4639158 245.025075,86.3333333 244.66667,86.3333333 C244.308265,86.3333333 243.94986,86.4646804 243.676822,86.7258453 Z" id="arrow-right" transform="translate(244.666667, 91.787879) scale(1, -1) rotate(90.000000) translate(-244.666667, -91.787879) "></path>
                </g>
            </g>
        </g>
    </g>
</svg>