<?xml version="1.0" encoding="UTF-8"?>
<svg width="26px" height="18px" viewBox="0 0 26 18" version="1.1" xmlns="http://www.w3.org/2000/svg" xmlns:xlink="http://www.w3.org/1999/xlink">
    <!-- Generator: Sketch 49.3 (51167) - http://www.bohemiancoding.com/sketch -->
    <title>back</title>
    <desc>Created with Sketch.</desc>
    <defs></defs>
    <g id="Symbols" stroke="none" stroke-width="1" fill="none" fill-rule="evenodd">
        <g id="mobile_property_search_filter_doma_remont" transform="translate(-20.000000, -15.000000)" fill="#404042">
            <g id="header">
                <g id="back" transform="translate(20.000000, 15.000000)">
                    <path d="M-0.487181498,3.76814166 L10.2233448,3.76814166 C10.3032743,3.76814166 10.3680817,3.99195166 10.3680817,4.26802666 L10.3680817,5.26813666 C10.3680817,5.54420666 10.3032743,5.76802166 10.2233448,5.76802166 L-0.487181498,5.76802166 C-0.56712255,5.76802166 -0.63191834,5.54420666 -0.63191834,5.26813666 L-0.63191834,4.26802666 C-0.63191834,3.99195166 -0.56712255,3.76814166 -0.487181498,3.76814166 Z" id="Rounded-Rectangle-1" transform="translate(4.868082, 4.768082) scale(-1, 1) rotate(45.000000) translate(-4.868082, -4.768082) "></path>
                    <path d="M-0.487181498,11.7681417 L10.2233448,11.7681417 C10.3032743,11.7681417 10.3680817,11.9919517 10.3680817,12.2680267 L10.3680817,13.2681367 C10.3680817,13.5442067 10.3032743,13.7680217 10.2233448,13.7680217 L-0.487181498,13.7680217 C-0.56712255,13.7680217 -0.63191834,13.5442067 -0.63191834,13.2681367 L-0.63191834,12.2680267 C-0.63191834,11.9919517 -0.56712255,11.7681417 -0.487181498,11.7681417 Z" id="Rounded-Rectangle-1" transform="translate(4.868082, 12.768082) rotate(45.000000) translate(-4.868082, -12.768082) "></path>
                    <path d="M0.697029029,7.76814166 L25.0391343,7.76814166 C25.2207922,7.76814166 25.3680817,7.99195166 25.3680817,8.26802666 L25.3680817,9.26813666 C25.3680817,9.54420666 25.2207922,9.76802166 25.0391343,9.76802166 L0.697029029,9.76802166 C0.515344818,9.76802166 0.36808166,9.54420666 0.36808166,9.26813666 L0.36808166,8.26802666 C0.36808166,7.99195166 0.515344818,7.76814166 0.697029029,7.76814166 Z" id="Rounded-Rectangle-1"></path>
                </g>
            </g>
        </g>
    </g>
</svg>