<?xml version="1.0" encoding="UTF-8"?>
<svg width="18px" height="18px" viewBox="0 0 18 18" version="1.1" xmlns="http://www.w3.org/2000/svg" xmlns:xlink="http://www.w3.org/1999/xlink">
    <!-- Generator: Sketch 49.2 (51160) - http://www.bohemiancoding.com/sketch -->
    <title>close</title>
    <desc>Created with Sketch.</desc>
    <defs></defs>
    <g id="Symbols" stroke="none" stroke-width="1" fill="none" fill-rule="evenodd">
        <g id="mobile_search" transform="translate(-444.000000, -20.000000)" fill="#404042">
            <g id="header">
                <g id="close" transform="translate(444.000000, 20.000000)">
                    <path d="M-2.33191834,7.76814166 L19.8680817,7.76814166 C20.0337537,7.76814166 20.1680817,7.99195166 20.1680817,8.26802666 L20.1680817,9.26813666 C20.1680817,9.54420666 20.0337537,9.76802166 19.8680817,9.76802166 L-2.33191834,9.76802166 C-2.49761434,9.76802166 -2.63191834,9.54420666 -2.63191834,9.26813666 L-2.63191834,8.26802666 C-2.63191834,7.99195166 -2.49761434,7.76814166 -2.33191834,7.76814166 Z" id="Rounded-Rectangle-1" transform="translate(8.768082, 8.768082) rotate(45.000000) translate(-8.768082, -8.768082) "></path>
                    <path d="M-2.33191834,7.76814166 L19.8680817,7.76814166 C20.0337537,7.76814166 20.1680817,7.99195166 20.1680817,8.26802666 L20.1680817,9.26813666 C20.1680817,9.54420666 20.0337537,9.76802166 19.8680817,9.76802166 L-2.33191834,9.76802166 C-2.49761434,9.76802166 -2.63191834,9.54420666 -2.63191834,9.26813666 L-2.63191834,8.26802666 C-2.63191834,7.99195166 -2.49761434,7.76814166 -2.33191834,7.76814166 Z" id="Rounded-Rectangle-1" transform="translate(8.768082, 8.768082) scale(-1, 1) rotate(45.000000) translate(-8.768082, -8.768082) "></path>
                </g>
            </g>
        </g>
    </g>
</svg>