<?xml version="1.0" encoding="UTF-8"?>
<svg width="16px" height="16px" viewBox="0 0 16 16" version="1.1" xmlns="http://www.w3.org/2000/svg" xmlns:xlink="http://www.w3.org/1999/xlink">
    <!-- Generator: Sketch 49.2 (51160) - http://www.bohemiancoding.com/sketch -->
    <title>dz-plus</title>
    <desc>Created with Sketch.</desc>
    <defs></defs>
    <g id="Property-edit-(with-photo)" stroke="none" stroke-width="1" fill="none" fill-rule="evenodd">
        <g id="admin_property_add/edit_1920p" transform="translate(-1126.000000, -2549.000000)" fill="#D8D8D8">
            <g id="photos" transform="translate(624.000000, 2288.000000)">
                <g id="Group">
                    <g id="dz-plus" transform="translate(510.146447, 269.353553) scale(-1, -1) rotate(45.000000) translate(-510.146447, -269.353553) translate(503.646447, 262.853553)">
                        <path d="M-0.802631579,6 L13.8026316,6 C13.9116263,6 14,6.11191171 14,6.2499575 L14,6.7500425 C14,6.88808579 13.9116263,7 13.8026316,7 L-0.802631579,7 C-0.911642105,7 -1,6.88808579 -1,6.7500425 L-1,6.2499575 C-1,6.11191171 -0.911642105,6 -0.802631579,6 Z" id="Rounded-Rectangle-1" transform="translate(6.500000, 6.500000) rotate(45.000000) translate(-6.500000, -6.500000) "></path>
                        <path d="M-0.802631579,6 L13.8026316,6 C13.9116263,6 14,6.11191171 14,6.2499575 L14,6.7500425 C14,6.88808579 13.9116263,7 13.8026316,7 L-0.802631579,7 C-0.911642105,7 -1,6.88808579 -1,6.7500425 L-1,6.2499575 C-1,6.11191171 -0.911642105,6 -0.802631579,6 Z" id="Rounded-Rectangle-1" transform="translate(6.500000, 6.500000) scale(-1, 1) rotate(45.000000) translate(-6.500000, -6.500000) "></path>
                    </g>
                </g>
            </g>
        </g>
    </g>
</svg>