<!-- Generator: Adobe Illustrator 20.1.0, SVG Export Plug-In  -->
<svg version="1.1"
	 xmlns="http://www.w3.org/2000/svg" xmlns:xlink="http://www.w3.org/1999/xlink" xmlns:a="http://ns.adobe.com/AdobeSVGViewerExtensions/3.0/"
	 x="0px" y="0px" viewBox="0 0 73 29" style="enable-background:new 0 0 72.5 29.1;"
	 xml:space="preserve">
<style type="text/css">
	.st0{fill:#414042;}
</style>
<defs>
</defs>
<g>
	<polygon class="st0" points="7.3,6.6 1.8,0 1.8,0 1.8,0 0,0 0,29 3,29 3,6.3 3,6.3 4.2,7.7 4.2,29 7.3,29 7.3,11.4 7.3,11.4
		21.8,29 21.8,29 21.8,29 21.8,29 25.7,29 21.8,24.2 	"/>
	<path class="st0" d="M69.5,0.1v11.6h-1.2V0.1h-3v11.6H50.8V0.1h-1.8l-5.4,6.6l0,0L39,12.2l-2,2.4l-0.8,0.9l-0.8-0.9l0.8-0.9l2-2.4
		l5.3-6.4l0,0l3.9-4.7l0-0.1h-4l0,0l-7.2,8.8l-0.1,0.1l-1-1.2L29,0.1V0h-4l4,4.8L29,4.9l4.3,5.2l1,1.2l-0.8,0.9l-0.3-0.3L29,6.7
		l-0.1-0.1L23.5,0h-1.7v17.6L7.3,0v0h-4l4,4.8l14.5,17.6l5.5,6.6H29V11.5l2.5,3.1l2,2.4l0.8,0.9l2,2.4l2-2.4l0.8-0.9l2-2.4l0,0
		l2.5-3.1v3.3h29V0.1H69.5z M26,22.7l-1.2-1.4V6.4l1.1,1.3L26,7.8V22.7z M46.5,11.7v-4l1.2-1.4v5.4H46.5z"/>
	<polygon class="st0" points="72.5,15.9 72.5,29.1 69.5,29.1 69.5,18.9 68.3,18.9 68.3,29.1 65.3,29.1 65.3,18.9 50.8,18.9
		50.8,29.1 47.7,29.1 47.7,18.9 46.5,18.9 46.5,29.1 43.5,29.1 43.5,15.9 	"/>
</g>
</svg>
