<?xml version="1.0" encoding="UTF-8"?><!DOCTYPE svg PUBLIC "-//W3C//DTD SVG 1.1//EN" "http://www.w3.org/Graphics/SVG/1.1/DTD/svg11.dtd"><svg xmlns="http://www.w3.org/2000/svg"><symbol id="ico-arrow-left" viewBox="0 0 12 21">
    <title>
        arrow-left
    </title>
    <path d="M.605 11.778l8.229 8.6a1.3 1.3 0 0 0 1.895 0 1.446 1.446 0 0 0 0-1.981l-7.281-7.61 7.28-7.608a1.446 1.446 0 0 0 0-1.98 1.3 1.3 0 0 0-1.895 0L.603 9.797a1.43 1.43 0 0 0-.39.99c0 .358.13.717.392.99z" fill-rule="evenodd"/>
</symbol><symbol id="ico-arrow-right" viewBox="0 0 12 21">
    <title>
        arrow-right
    </title>
    <path d="M10.729 11.778l-8.23 8.6a1.3 1.3 0 0 1-1.895 0 1.446 1.446 0 0 1 0-1.981l7.282-7.61L.604 3.18a1.446 1.446 0 0 1 0-1.98 1.3 1.3 0 0 1 1.897 0l8.228 8.599c.262.273.392.631.392.99 0 .358-.131.717-.392.99z" fill-rule="evenodd"/>
</symbol><symbol id="ico-back" viewBox="0 0 26 18">
    <title>
        back
    </title>
    <g fill-rule="evenodd">
        <path d="M7.948.274L.374 7.848c-.056.056.056.26.251.456l.708.707c.195.195.399.307.455.25l7.574-7.573c.056-.056-.056-.26-.251-.455L8.404.525c-.196-.195-.4-.307-.456-.25z"/>
        <path d="M1.788 8.274l7.574 7.574c.056.056-.056.26-.251.456l-.707.707c-.196.195-.4.307-.456.25L.374 9.689c-.056-.056.056-.26.251-.455l.708-.708c.195-.195.399-.307.455-.25z"/>
        <path d="M.697 7.768h24.342c.182 0 .33.224.33.5v1c0 .276-.148.5-.33.5H.697c-.182 0-.329-.224-.329-.5v-1c0-.276.147-.5.329-.5z"/>
    </g>
</symbol><symbol id="ico-close" viewBox="0 0 18 18">
    <title>
        close
    </title>
    <g fill-rule="evenodd">
        <path d="M1.626.212L17.324 15.91c.117.117.054.37-.141.566l-.707.707c-.196.195-.449.258-.566.141L.212 1.626c-.117-.117-.054-.37.141-.565l.708-.708c.195-.195.448-.258.565-.14z"/>
        <path d="M15.91.212L.212 15.91c-.117.117-.054.37.141.566l.708.707c.195.195.448.258.565.141L17.324 1.626c.117-.117.054-.37-.141-.565l-.707-.708c-.196-.195-.449-.258-.566-.14z"/>
    </g>
</symbol><symbol id="ico-drop-arrow" viewBox="0 0 10 6">
    <title>
        drop-arrow
    </title>
    <path d="M4.497.218L.197 4.77a.772.772 0 0 0 0 1.049c.273.289.717.289.99 0L4.992 1.79l3.805 4.028c.273.289.717.289.99 0a.773.773 0 0 0 0-1.05L5.487.219A.68.68 0 0 0 4.992 0a.68.68 0 0 0-.495.217z" fill-rule="evenodd"/>
</symbol><symbol id="ico-logo" viewBox="0 0 73 29">
    <style>
        .st0{fill:#414042}
    </style>
    <path class="st0" d="M7.3 6.6L1.8 0H0v29h3V6.3l1.2 1.4V29h3.1V11.4L21.8 29h3.9l-3.9-4.8z"/>
    <path class="st0" d="M69.5.1v11.6h-1.2V.1h-3v11.6H50.8V.1H49l-5.4 6.6-4.6 5.5-2 2.4-.8.9-.8-.9.8-.9 2-2.4 5.3-6.4L47.4.2V.1h-4l-7.2 8.8-.1.1-1-1.2L29 .1V0h-4l4 4.8v.1l4.3 5.2 1 1.2-.8.9-.3-.3L29 6.7l-.1-.1L23.5 0h-1.7v17.6L7.3 0h-4l4 4.8 14.5 17.6 5.5 6.6H29V11.5l2.5 3.1 2 2.4.8.9 2 2.4 2-2.4.8-.9 2-2.4 2.5-3.1v3.3h29V.1h-3.1zM26 22.7l-1.2-1.4V6.4l1.1 1.3.1.1v14.9zm20.5-11v-4l1.2-1.4v5.4h-1.2z"/>
    <path class="st0" d="M72.5 15.9v13.2h-3V18.9h-1.2v10.2h-3V18.9H50.8v10.2h-3.1V18.9h-1.2v10.2h-3V15.9z"/>
</symbol><symbol id="ico-search" viewBox="0 0 23 23">
    <title>
        search
    </title>
    <g fill-rule="evenodd">
        <path d="M15.504 14.09l6.644 6.644c.05.05-.068.248-.264.443l-.707.707c-.195.196-.394.314-.443.264l-6.644-6.644c-.05-.05.068-.248.263-.443l.708-.708c.195-.195.393-.313.443-.263z"/>
        <path d="M8 16A8 8 0 1 1 8 0a8 8 0 0 1 0 16zm0-2A6 6 0 1 0 8 2a6 6 0 0 0 0 12z" fill-rule="nonzero"/>
    </g>
</symbol></svg>